PathFileType	4	(X/Y/Z)	S01_0004_Gait_markers.trc
DataRate	CameraRate	NumFrames	NumMarkers	Units	OrigDataRate	OrigDataStartFrame	OrigNumFrames
250.000000	250.000000	4	54	mm	250.000000	240	320
Frame#	Time	HEAD_ANT			R_HEAD			L_HEAD			C7			R_BACK			L_BACK			STERNUM			R_ACROMION			R_HUM_PROX			R_HUM_ANT			R_HUM_POST			R_ELBOW_LAT			R_ELBOW_MED			R_FOREARM			R_WIRST_LAT			R_WRITS_MED			R_HAND			L_ACROMION			L_HUM_PROX			L_HUM_ANT			L_HUM_POST			L_ELBOW_LAT			L_ELBOW_MED			L_FOREARM			L_WRIST_LAT			L_WIRST_MED			L_HAND			R_ILIAC			SACRUM			L_ILIAC			R_GTROCH			R_THIGH__1			R_THIGH_2			R_THIGH_3			R_THIGH_4			R_SHANK_1			R_SHANK_2			R_SHANK_3			R_SHANK_4			R_HEEL			R_FOOT_LAT			R_FOOT_MED			L_GTROCH			L_THIGH_1			L_THIGH_2			L_THIGH_3			L_THIGH_4			L_SHANK_1			L_SHANK_2			L_SHANK_3			L_SHANK_4			L_HEEL			L_FOOT_LAT			L_FOOT_MED			
		X1	Y1	Z1	X2	Y2	Z2	X3	Y3	Z3	X4	Y4	Z4	X5	Y5	Z5	X6	Y6	Z6	X7	Y7	Z7	X8	Y8	Z8	X9	Y9	Z9	X10	Y10	Z10	X11	Y11	Z11	X12	Y12	Z12	X13	Y13	Z13	X14	Y14	Z14	X15	Y15	Z15	X16	Y16	Z16	X17	Y17	Z17	X18	Y18	Z18	X19	Y19	Z19	X20	Y20	Z20	X21	Y21	Z21	X22	Y22	Z22	X23	Y23	Z23	X24	Y24	Z24	X25	Y25	Z25	X26	Y26	Z26	X27	Y27	Z27	X28	Y28	Z28	X29	Y29	Z29	X30	Y30	Z30	X31	Y31	Z31	X32	Y32	Z32	X33	Y33	Z33	X34	Y34	Z34	X35	Y35	Z35	X36	Y36	Z36	X37	Y37	Z37	X38	Y38	Z38	X39	Y39	Z39	X40	Y40	Z40	X41	Y41	Z41	X42	Y42	Z42	X43	Y43	Z43	X44	Y44	Z44	X45	Y45	Z45	X46	Y46	Z46	X47	Y47	Z47	X48	Y48	Z48	X49	Y49	Z49	X50	Y50	Z50	X51	Y51	Z51	X52	Y52	Z52	X53	Y53	Z53	X54	Y54	Z54	

241	0.96	1501.981811523438	1749.755737304688	-388.1239318847652	1439.750366210938	1707.473388671875	-308.958587646484	1443.62744140625	1696.870849609375	-455.3311157226559	1302.111206054688	1535.320922851562	-380.1171874999997	1222.091674804688	1340.340576171875	-314.871398925781	1230.737060546875	1343.840087890625	-456.3781127929685	1475.067749023438	1369.82568359375	-367.6723022460935	1369.578002929688	1486.036865234375	-203.1728973388668	1320.880126953125	1329.3857421875	-110.705642700195	1379.259643554688	1242.185546875	-100.9247283935544	1257.94287109375	1248.60546875	-98.98678588867159	1304.0107421875	1140.894653320312	-84.38726806640599	1279.824340820312	1135.307739257812	-165.2553863525388	1405.946411132812	958.2393798828125	-84.38088989257791	1443.498779296875	892.1273803710938	-124.8685379028318	1377.442138671875	868.391357421875	-82.65530395507793	1449.956420898438	805.1409301757812	-67.86441040039044	1393.07861328125	1489.267456054688	-541.3667602539059	1384.988159179688	1323.122680664063	-639.4509277343747	1446.86083984375	1243.52685546875	-629.3444213867185	1331.431518554688	1244.829223632813	-673.2001953124998	1391.619262695312	1141.449951171875	-672.449035644531	1334.065795898438	1134.7197265625	-622.955139160156	1505.550903320312	974.5855712890626	-636.151672363281	1533.012817382812	915.6601562500001	-579.4415893554685	1499.32177734375	890.7512207031251	-646.4215087890623	1576.447143554688	839.7393798828126	-622.697082519531	1369.240844726562	1087.864379882812	-205.7091827392576	1243.054931640625	1061.145751953125	-374.7420654296873	1367.583129882812	1082.472290039063	-549.8302001953123	1335.381713867188	936.513671875	-185.7531280517576	1450.049438476562	667.941162109375	-205.040084838867	1500.657958984375	697.77880859375	-202.641387939453	1530.3505859375	598.4370727539062	-232.8366699218749	1466.4814453125	588.785888671875	-223.4316101074217	1438.179809570312	378.6416320800782	-215.2188110351562	1489.2470703125	349.2987060546876	-228.6839599609374	1471.968627929688	265.8915100097657	-243.7744445800781	1410.44189453125	281.9445800781251	-233.1847839355468	1344.048583984375	71.92971038818366	-312.6830749511719	1500.052368164062	37.54927062988286	-222.0429229736328	1560.281860351562	49.32685470581062	-308.9443054199219	1321.471069335938	969.2560424804689	-551.8658447265623	1357.273681640625	675.1779174804689	-532.4312744140624	1307.6865234375	703.6528320312501	-545.4550781249999	1277.686401367188	606.7330322265626	-510.4360046386718	1341.31591796875	598.6584472656251	-507.2239685058593	1257.658935546875	338.9238891601564	-491.3444519042968	1198.044311523438	325.956268310547	-489.7842102050781	1184.443237304688	241.6674041748048	-470.4856872558593	1248.405029296875	239.0352935791017	-466.5499572753906	1125.687622070312	62.12546539306649	-393.5726623535156	1298.369140625	18.38946151733409	-464.70703125	1334.811157226562	30.69801139831551	-360.5917358398438	
242	0.964	1507.498413085938	1748.88427734375	-387.8946533203121	1445.164306640625	1706.76220703125	-308.8898010253902	1449.228881835938	1696.05078125	-455.2663269042965	1307.435791015625	1534.823608398438	-379.9579467773434	1227.30859375	1339.6591796875	-315.3142089843747	1235.9404296875	1343.217163085938	-456.3915405273435	1480.296142578125	1369.1669921875	-367.3345947265622	1374.6181640625	1485.2666015625	-203.0715942382809	1325.713745117188	1328.686889648438	-110.6146850585935	1383.933837890625	1241.52978515625	-100.7429122924802	1262.48291015625	1248.11669921875	-98.96423339843722	1308.61572265625	1140.2177734375	-84.20539093017553	1284.759643554688	1134.62646484375	-165.0751800537107	1410.562377929688	957.5542602539062	-83.81250762939432	1448.17138671875	891.576904296875	-124.2586593627928	1382.120971679688	867.7013549804688	-82.21979522705058	1454.652465820312	804.5330200195312	-67.22437286376935	1398.638671875	1488.437744140625	-541.1950073242184	1390.939086914062	1322.62255859375	-639.3261718749997	1453.022705078125	1243.078979492188	-629.118713378906	1337.759643554688	1244.301391601563	-673.3605346679685	1397.91552734375	1141.197998046875	-672.6667480468748	1340.583740234375	1134.114379882813	-623.0853271484373	1512.57958984375	974.4089965820314	-636.1107788085935	1540.00634765625	915.6571044921876	-579.0922851562498	1506.745239257812	890.6666870117189	-646.2485351562498	1583.88134765625	839.9638671875001	-622.094055175781	1374.480346679688	1087.10302734375	-205.8316802978513	1248.40625	1060.558349609375	-374.7709960937498	1372.912841796875	1081.948608398438	-549.8896484374998	1340.944091796875	935.8959350585938	-186.0698242187498	1455.858276367188	667.4274291992188	-205.3014678955077	1506.37744140625	697.493408203125	-202.8867034912108	1536.259155273438	598.3023071289062	-233.2360076904295	1472.581909179688	588.4857177734375	-223.7460937499999	1447.790649414062	377.2689819335938	-215.8470916748046	1499.474487304688	348.8923034667969	-229.2711334228515	1484.112182617188	265.0612792968751	-244.3498229980468	1422.305786132812	280.0660705566407	-233.9843139648437	1361.195922851562	68.40970611572273	-314.7128295898438	1516.710815429688	36.6754875183106	-222.8343505859375	1577.394287109375	49.98872756958015	-309.4181213378906	1326.330444335938	968.7224731445314	-551.8817749023435	1360.009643554688	675.0415039062501	-532.5037841796874	1310.463623046875	703.8092651367189	-545.8447265624999	1279.750610351562	606.8801269531251	-510.4899597167968	1343.197021484375	598.2606811523439	-507.0843200683593	1258.530151367188	339.1052856445314	-491.2063598632812	1198.919677734375	326.2707824707032	-489.5467224121093	1185.13037109375	242.0237731933595	-470.0732116699218	1249.106323242188	239.2412109375001	-466.2941589355468	1125.945678710938	62.78682708740243	-392.9193115234375	1297.927612304688	18.56102752685557	-464.67431640625	1334.996215820312	30.64207458496102	-360.5188903808594	
243	0.968	1513.004638671875	1748.123413085938	-387.7164611816402	1450.555053710938	1705.967895507812	-308.690032958984	1454.628051757812	1695.41162109375	-454.9804382324215	1312.796752929688	1534.102172851562	-379.891448974609	1232.398071289062	1338.88916015625	-315.6206359863278	1240.8525390625	1342.834838867188	-456.6178588867185	1485.570678710938	1368.2958984375	-367.0441284179685	1379.62109375	1484.537231445312	-202.8354034423825	1331.173583984375	1328.04443359375	-109.8764724731442	1388.618774414062	1240.805297851562	-100.6160812377927	1267.310668945312	1247.379150390625	-98.88316345214817	1313.16796875	1139.300903320312	-84.10650634765599	1289.482299804688	1134.007202148438	-165.1135559082029	1415.119140625	956.8954467773438	-83.32960510253885	1452.898681640625	890.8871459960938	-123.7333602905271	1386.641845703125	867.00439453125	-81.79775238037089	1459.208374023438	803.9332885742188	-66.6253128051756	1404.156372070312	1487.778442382813	-540.9839477539059	1396.9501953125	1322.15771484375	-639.2968749999997	1458.99755859375	1242.65673828125	-629.005676269531	1343.996337890625	1243.580078125	-673.5197143554685	1404.523193359375	1140.771240234375	-672.406066894531	1346.90771484375	1133.407470703125	-623.302307128906	1519.536865234375	974.2241821289064	-635.9318847656248	1546.989379882812	915.6257324218751	-578.8775634765623	1514.050903320312	890.4349975585939	-646.1447753906248	1591.2646484375	839.9927368164064	-621.4728393554685	1379.80615234375	1086.428833007812	-205.8263244628904	1253.712646484375	1059.840942382812	-374.9696960449216	1378.25244140625	1081.287231445313	-549.9947509765623	1346.370239257812	935.3790893554688	-186.1955871582029	1461.601196289062	667.0214233398438	-205.5120239257811	1512.067260742188	697.0874633789062	-202.6729888916014	1542.18115234375	598.0517578125	-233.4916687011717	1478.665893554688	588.171142578125	-223.7548370361327	1457.381469726562	375.7710571289063	-216.4350433349609	1509.861938476562	348.5999755859376	-229.739028930664	1496.265625	264.3874206542969	-244.9990997314453	1434.066284179688	278.1054687500001	-234.7592773437499	1377.050537109375	65.59684753417976	-314.9191284179688	1533.557739257812	36.23754119873052	-223.636474609375	1594.470703125	50.25600433349616	-310.0236206054688	1331.050170898438	968.2424926757814	-551.9826660156248	1362.279052734375	673.9893188476564	-532.7371826171874	1313.109985351562	703.0690917968751	-545.1990356445311	1282.291381835938	607.5413818359376	-510.8688659667968	1345.608276367188	598.1006469726564	-507.3419189453124	1259.34912109375	339.2769470214845	-490.9925537109374	1199.8505859375	326.643768310547	-489.2686462402343	1185.781494140625	242.4752349853517	-469.6626281738281	1249.919189453125	239.5213775634767	-466.0342102050781	1126.243286132812	63.28561782836923	-392.3057861328125	1297.806030273438	18.62116241455088	-464.5281372070312	1335.018310546875	30.44162559509286	-360.2502136230469	
244	0.972	1518.487915039062	1747.243530273438	-387.4888916015621	1456.012451171875	1705.090698242188	-308.3876953124996	1460.224853515625	1694.551147460938	-454.8767089843746	1318.2392578125	1533.283569335938	-379.690277099609	1237.848510742188	1338.081665039062	-315.5147399902341	1246.262939453125	1342.300415039062	-456.8907470703122	1490.427612304688	1367.468383789062	-366.693908691406	1384.6337890625	1483.730590820312	-202.5726623535153	1335.8857421875	1327.319213867188	-109.8590469360349	1393.399658203125	1239.933837890625	-100.4181976318357	1272.0673828125	1246.670166015625	-98.87825775146457	1317.693115234375	1138.676635742188	-83.98200988769506	1294.060546875	1133.301513671875	-165.0853271484372	1419.697265625	956.0313720703125	-82.76048278808572	1457.62744140625	890.2073974609375	-123.17032623291	1391.257080078125	866.2919311523438	-81.43575286865214	1463.80419921875	803.1127319335938	-66.00317382812482	1409.866455078125	1487.078002929688	-540.8346557617184	1403.100463867188	1321.528442382813	-639.2110595703122	1465.225708007812	1242.138793945313	-628.8994140624998	1350.196044921875	1242.887451171875	-673.5551757812498	1411.13818359375	1140.253295898438	-673.006164550781	1353.050903320312	1132.6806640625	-623.6744384765623	1526.479248046875	974.1099853515626	-635.7321777343748	1553.946899414062	915.4893188476564	-578.6328124999998	1521.357421875	890.2529296875001	-646.047912597656	1598.686645507812	839.9046020507814	-620.963195800781	1385.309204101562	1085.67822265625	-205.9322814941404	1259.081665039062	1059.119262695312	-374.7874450683591	1383.657958984375	1080.602661132813	-550.094299316406	1351.721923828125	934.7797241210938	-186.2781829833982	1467.2822265625	666.26318359375	-205.7747802734374	1517.649780273438	696.68994140625	-203.1014404296874	1548.088989257812	597.647216796875	-233.6058197021483	1484.5361328125	587.4825439453125	-224.401397705078	1467.1669921875	374.2763977050782	-216.9857482910155	1520.118286132812	348.2887573242188	-230.2943115234374	1508.447387695312	263.8243103027344	-245.5976562499999	1445.968505859375	276.1391906738282	-235.5007324218749	1393.628662109375	62.5854568481446	-316.6448059082031	1550.313354492188	35.93618392944341	-224.4404449462891	1611.333862304688	51.1032905578614	-310.7167663574219	1335.968505859375	967.6071166992189	-552.1298828124998	1365.341064453125	674.1890869140626	-532.7187499999999	1315.99853515625	703.4860839843751	-545.4622802734374	1284.710205078125	607.7147216796876	-511.0020446777343	1347.869018554688	597.6890258789064	-507.3746948242186	1260.434204101562	339.9174804687501	-491.1555786132812	1200.745483398438	326.9873046875001	-488.9455871582031	1186.468505859375	242.8852539062501	-469.3110656738281	1250.668334960938	239.7078094482423	-465.8826293945312	1126.465454101562	63.83179092407235	-391.7420349121094	1297.679565429688	18.67240905761729	-464.3979187011719	1335.27783203125	30.41480636596688	-360.3435974121094	
